<?xml version="1.0" encoding="UTF-8"?>
<svg width="24px" height="24px" viewBox="0 0 24 24" version="1.1" xmlns="http://www.w3.org/2000/svg" xmlns:xlink="http://www.w3.org/1999/xlink">
    <!-- Generator: Sketch 64 (93537) - https://sketch.com -->
    <title>facebook</title>
    <desc>Created with Sketch.</desc>
    <g id="Page-1" stroke="none" stroke-width="1" fill="none" fill-rule="evenodd">
        <g id="Desktop" transform="translate(-500.000000, -4162.000000)" fill="#000000" fill-rule="nonzero">
            <g id="Footer" transform="translate(0.000000, 4078.000000)">
                <g id="facebook" transform="translate(500.000000, 84.000000)">
                    <path d="M22.6298507,0.0268656716 L1.37014925,0.0268656716 C0.644776119,0.0268656716 0.0537313433,0.617910448 0.0537313433,1.34328358 L0.0537313433,22.6029851 C0.0537313433,23.3283582 0.644776119,23.919403 1.37014925,23.919403 L12.9044776,23.919403 L12.9044776,14.6686567 L9.7880597,14.6686567 L9.7880597,11.0597015 L12.9044776,11.0597015 L12.9044776,8.4 C12.9044776,5.31044776 14.7940299,3.6358209 17.5432836,3.6358209 C18.8597015,3.6358209 19.9970149,3.73432836 20.3283582,3.77910448 L20.3283582,7.00298507 L18.4208955,7.00298507 C16.9253731,7.00298507 16.6298507,7.71044776 16.6298507,8.75820896 L16.6298507,11.0597015 L20.2029851,11.0597015 L19.7373134,14.6686567 L16.6298507,14.6686567 L16.6298507,23.9283582 L22.6298507,23.9283582 C23.3552239,23.9283582 23.9462687,23.3373134 23.9462687,22.6119403 L23.9462687,1.34328358 C23.9552239,0.617910448 23.3641791,0.0268656716 22.6298507,0.0268656716 Z" id="Shape"></path>
                </g>
            </g>
        </g>
    </g>
</svg>