<?xml version="1.0" encoding="UTF-8"?>
<svg width="26px" height="26px" viewBox="0 0 26 26" version="1.1" xmlns="http://www.w3.org/2000/svg" xmlns:xlink="http://www.w3.org/1999/xlink">
    <!-- Generator: Sketch 64 (93537) - https://sketch.com -->
    <title>instagram</title>
    <desc>Created with Sketch.</desc>
    <g id="Page-1" stroke="none" stroke-width="1" fill="none" fill-rule="evenodd">
        <g id="Desktop" transform="translate(-545.000000, -4162.000000)" fill="#000000" fill-rule="nonzero">
            <g id="Footer" transform="translate(0.000000, 4078.000000)">
                <g id="instagram" transform="translate(545.000000, 84.000000)">
                    <path d="M22.3888889,0 L3.61111111,0 C1.61597222,0 0,1.61597222 0,3.61111111 L0,22.3888889 C0,24.3840278 1.61597222,26 3.61111111,26 L22.3888889,26 C24.3840278,26 26,24.3840278 26,22.3888889 L26,3.61111111 C26,1.61597222 24.3840278,0 22.3888889,0 Z M13,7.94444444 C15.7895833,7.94444444 18.0555556,10.2104167 18.0555556,13 C18.0555556,15.7895833 15.7895833,18.0555556 13,18.0555556 C10.2104167,18.0555556 7.94444444,15.7895833 7.94444444,13 C7.94444444,10.2104167 10.2104167,7.94444444 13,7.94444444 Z M23.1111111,22.3888889 C23.1111111,22.7861111 22.7861111,23.1111111 22.3888889,23.1111111 L3.61111111,23.1111111 C3.21388889,23.1111111 2.88888889,22.7861111 2.88888889,22.3888889 L2.88888889,10.8333333 L5.35347222,10.8333333 C5.15486111,11.5194444 5.05555556,12.2506944 5.05555556,13 C5.05555556,17.3875 8.6125,20.9444444 13,20.9444444 C17.3875,20.9444444 20.9444444,17.3875 20.9444444,13 C20.9444444,12.2506944 20.8361111,11.5194444 20.6465278,10.8333333 L23.1111111,10.8333333 L23.1111111,22.3888889 Z M23.1111111,7.22222222 C23.1111111,7.61944444 22.7861111,7.94444444 22.3888889,7.94444444 L18.7777778,7.94444444 C18.3805556,7.94444444 18.0555556,7.61944444 18.0555556,7.22222222 L18.0555556,3.61111111 C18.0555556,3.21388889 18.3805556,2.88888889 18.7777778,2.88888889 L22.3888889,2.88888889 C22.7861111,2.88888889 23.1111111,3.21388889 23.1111111,3.61111111 L23.1111111,7.22222222 Z" id="Shape"></path>
                </g>
            </g>
        </g>
    </g>
</svg>