<?xml version="1.0" encoding="UTF-8"?>
<svg width="25px" height="20px" viewBox="0 0 25 20" version="1.1" xmlns="http://www.w3.org/2000/svg" xmlns:xlink="http://www.w3.org/1999/xlink">
    <!-- Generator: Sketch 64 (93537) - https://sketch.com -->
    <title>twitter</title>
    <desc>Created with Sketch.</desc>
    <g id="Page-1" stroke="none" stroke-width="1" fill="none" fill-rule="evenodd">
        <g id="Desktop" transform="translate(-454.000000, -4162.000000)" fill="#000000" fill-rule="nonzero">
            <g id="Footer" transform="translate(0.000000, 4078.000000)">
                <g id="twitter" transform="translate(454.000000, 84.000000)">
                    <path d="M24.9363636,2.40358744 C24.0181818,2.80717489 23.0363636,3.07623318 22.0090909,3.19282511 C23.0636364,2.57399103 23.8727273,1.58744395 24.2545455,0.412556054 C23.2727273,0.986547085 22.1818182,1.40807175 21.0181818,1.632287 C20.0818182,0.65470852 18.7545455,0.0448430493 17.2909091,0.0448430493 C14.4727273,0.0448430493 12.1909091,2.29596413 12.1909091,5.07623318 C12.1909091,5.47085202 12.2363636,5.85650224 12.3272727,6.22421525 C8.08181818,6.01793722 4.32727273,4.00896861 1.80909091,0.968609865 C1.37272727,1.71300448 1.11818182,2.57399103 1.11818182,3.49775785 C1.11818182,5.24663677 2.01818182,6.78026906 3.39090909,7.68609865 C2.55454545,7.65919283 1.77272727,7.43497758 1.08181818,7.05829596 L1.08181818,7.12107623 C1.08181818,9.56053812 2.83636364,11.5874439 5.17272727,12.0538117 C4.74545455,12.1704036 4.29090909,12.2331839 3.82727273,12.2331839 C3.5,12.2331839 3.18181818,12.1973094 2.86363636,12.1434978 C3.50909091,14.1434978 5.4,15.5964126 7.62727273,15.6412556 C5.88181818,16.9865471 3.68181818,17.793722 1.29090909,17.793722 C0.881818182,17.793722 0.472727273,17.7668161 0.0727272727,17.7219731 C2.32727273,19.1479821 5.00909091,19.9820628 7.89090909,19.9820628 C17.2727273,19.9820628 22.4,12.3139013 22.4,5.66816143 C22.4,5.4529148 22.3909091,5.22869955 22.3818182,5.01345291 C23.3909091,4.30493274 24.2545455,3.41704036 24.9363636,2.40358744 Z" id="Shape"></path>
                </g>
            </g>
        </g>
    </g>
</svg>